<!-- icon666.com - MILLIONS vector ICONS FREE --><svg id="_x30_3.3" enable-background="new 0 0 100 100" viewBox="0 0 100 100" xmlns="http://www.w3.org/2000/svg"><path id="Icon_29_" d="m40.434 42.492h8.497c6.733 0 10.1-3.295 10.1-9.886 0-2.565-.802-4.657-2.405-6.279-1.603-1.621-3.866-2.432-6.787-2.432-2.387 0-4.462.695-6.226 2.084s-2.645 3.118-2.645 5.184h-18.009c0-4.096 1.14-7.749 3.42-10.955s5.442-5.709 9.486-7.508c4.044-1.8 8.488-2.7 13.333-2.7 8.657 0 15.462 1.977 20.414 5.932s7.428 9.388 7.428 16.299c0 3.349-1.024 6.512-3.073 9.486-2.049 2.975-5.032 5.389-8.951 7.241 4.133 1.496 7.375 3.768 9.726 6.814s3.527 6.814 3.527 11.303c0 6.947-2.672 12.505-8.016 16.673-5.343 4.168-12.362 6.252-21.055 6.252-5.095 0-9.824-.971-14.188-2.912s-7.669-4.631-9.913-8.069-3.367-7.348-3.367-11.73h18.116c0 2.387.962 4.454 2.886 6.199 1.924 1.746 4.293 2.619 7.108 2.619 3.171 0 5.7-.882 7.588-2.645 1.888-1.764 2.832-4.016 2.832-6.76 0-3.919-.98-6.698-2.939-8.337-1.959-1.638-4.667-2.458-8.123-2.458h-8.764z" fill="#2196f3" style="fill: rgb(204, 219, 211);"></path></svg>