<!-- icon666.com - MILLIONS vector ICONS FREE --><svg version="1.1" id="Capa_1" xmlns="http://www.w3.org/2000/svg" xmlns:xlink="http://www.w3.org/1999/xlink" x="0px" y="0px" viewBox="0 0 125.147 125.148" style="enable-background:new 0 0 125.147 125.148;" xml:space="preserve"><g><path d="M110.846,47.724c-0.199-24.3-20-43.9-44.3-43.9c-16.6,0-31,9.1-38.6,22.6c-16.5,2.7-28.8,17.6-27.9,34.9 c0.8,14.801,11.4,26.801,25.2,30.5c0.3,0,0.6,0,0.9,0c-0.9-2.3-1.4-4.8-1.4-7.3c0-5.3,2.1-10.3,5.8-14.101 c22.1-22.1,22.1-22.1,22.3-22.299c4-3.7,9.5-5.7,14.9-5.3c4.9,0.3,9.6,2.5,13.1,6.2c0.9,0.9,15.7,15.7,21.4,21.399 c3.8,3.801,5.8,8.701,5.8,14.101c0,3-0.7,5.899-2,8.5c4.2-0.399,19.101-3.101,19.101-23.5 C125.246,59.724,119.246,51.224,110.846,47.724z"></path><path d="M57.446,112.423c0,4.9,4.1,8.9,9,8.9c4.899,0,9-4,9-8.9v-20.6v-6.699l6.1,6.6l0.101,0.1c1.699,1.6,4.199,2.5,6.5,2.5 c2.1,0,4.1-0.699,5.699-2c0.2-0.199,0.4-0.4,0.601-0.6c1.7-1.7,2.6-3.9,2.6-6.301c0-2.399-0.899-4.6-2.6-6.299 c0,0-21.3-21.301-21.5-21.5c-1.7-1.7-3.7-2.7-6-2.9c-2.5-0.2-4.9,0.7-6.7,2.4c0,0,0,0-22,22c-1.7,1.699-2.6,3.899-2.6,6.299 c0,2.4,0.9,4.601,2.6,6.301c0.3,0.3,0.6,0.5,0.9,0.8c1.5,1.2,3.4,1.8,5.4,1.8c2.1,0,3.8-0.8,5.3-2.1l7.6-7.1v6.899V112.423z"></path></g></svg>