<!-- icon666.com - MILLIONS vector ICONS FREE --><svg id="Line" enable-background="new 0 0 32 32" viewBox="0 0 32 32" xmlns="http://www.w3.org/2000/svg"><path id="XMLID_106_" d="m24.972 12.288c-.364-4.631-4.249-8.288-8.972-8.288-4.04 0-7.508 2.624-8.627 6.451-3.192 1.108-5.373 4.132-5.373 7.549 0 4.411 3.589 8 8 8h13c3.86 0 7-3.14 7-7 0-3.149-2.07-5.852-5.028-6.712zm-1.972 11.712h-13c-3.309 0-6-2.691-6-6 0-2.712 1.833-5.094 4.457-5.792.36-.096.637-.384.719-.747.71-3.164 3.58-5.461 6.824-5.461 3.694 0 6.996 2.924 6.996 7.089 0 .489.353.906.835.986 2.416.405 4.169 2.476 4.169 4.925 0 2.757-2.243 5-5 5z" fill="#000000" style="fill: rgb(43, 105, 73);"></path><path id="XMLID_109_" d="m20.707 14.293c.391.391.391 1.023 0 1.414s-1.023.391-1.414 0l-2.293-2.293v7.586c0 .552-.448 1-1 1s-1-.448-1-1v-7.586l-2.293 2.293c-.391.391-1.023.391-1.414 0s-.391-1.023 0-1.414l4-4c.39-.39 1.028-.387 1.415 0z" fill="#000000" style="fill: rgb(43, 105, 73);"></path></svg>