<!-- icon666.com - MILLIONS vector ICONS FREE --><svg viewBox="0 0 64 64" xmlns="http://www.w3.org/2000/svg"><g id="download"><path d="m32 3.25a28.75 28.75 0 1 0 28.75 28.75 28.763 28.763 0 0 0 -28.75-28.75zm0 53.5a24.75 24.75 0 1 1 24.75-24.75 24.762 24.762 0 0 1 -24.75 24.75z" fill-rule="evenodd" fill="#000000" style="fill: rgb(43, 105, 73);"></path><path d="m31.369 40.365a.751.751 0 0 0 1.267 0l7.964-12.542a.75.75 0 0 0 -.633-1.152h-4.426v-10.671a.75.75 0 0 0 -.75-.75h-5.577a.75.75 0 0 0 -.75.75v10.671h-4.428a.75.75 0 0 0 -.633 1.152z" fill-rule="evenodd" fill="#000000" style="fill: rgb(43, 105, 73);"></path><rect height="5.113" rx=".75" width="30.404" x="16.82" y="41.923" fill="#000000" style="fill: rgb(43, 105, 73);"></rect></g></svg>