<!-- icon666.com - MILLIONS vector ICONS FREE --><svg id="Layer_1" enable-background="new 0 0 512 512" viewBox="0 0 512 512" xmlns="http://www.w3.org/2000/svg"><g id="Layer_2_1_"><g id="_01.Solid_Black"><g id="_2"><path d="m198.4 312.8c17.2-14.2 30.7-25.8 40.6-35 9.4-8.6 17.8-18.2 25.1-28.6 6.8-10 10.3-19.7 10.3-29.2 0-7.2-1.7-12.8-5-16.8s-8.3-6-15-6-11.9 2.5-15.6 7.5c-3.8 5-5.6 12-5.7 21.2h-43.4c.3-14.9 3.5-27.3 9.6-37.3 5.6-9.6 13.9-17.3 23.9-22.1 10.3-4.8 21.6-7.3 33-7.1 20.8 0 36.6 5.3 47.2 16s15.9 24.6 15.9 41.8c0 18.8-6.4 36.1-19.2 52.2s-29.1 31.7-48.9 46.9h71v36.5h-131.9v-33.4c6-4.8 8.7-7 8.1-6.6z" fill="#000000" style="fill: rgb(204, 219, 211);"></path></g></g></g></svg>