<!-- icon666.com - MILLIONS vector ICONS FREE --><svg id="Capa_1" enable-background="new 0 0 512.007 512.007" viewBox="0 0 512.007 512.007" xmlns="http://www.w3.org/2000/svg"><g><path d="m102.589 231.279 39.081-9.991 9.708 37.933c.751 2.937 3.196 5.132 6.197 5.564.357.051.716.076 1.07.076 2.617 0 5.08-1.372 6.444-3.666l89.868-151.111c.293-.49.425-.605 1.059-.605.635 0 .768.114 1.058.603l39.792 66.907c2.117 3.561 6.721 4.729 10.28 2.612s4.729-6.72 2.612-10.28l-39.794-66.91c-1.668-2.802-3.981-4.936-6.711-6.282l26.522-44.599c10.009 5.711 18.544 14.009 24.724 24.394l75.832 127.509-8.661 33.86-37.135-9.497-17.401-29.261c-2.117-3.561-6.72-4.729-10.28-2.612s-4.729 6.72-2.612 10.28l18.986 31.925c1.015 1.706 2.665 2.94 4.588 3.433l47.403 12.123c4.015 1.022 8.098-1.396 9.124-5.408l11.292-44.142c.494-1.931.199-3.979-.819-5.692l-77.425-130.189c-15.125-25.419-41.807-40.594-71.374-40.594-29.566 0-56.248 15.176-71.375 40.597l-90.357 151.922c-1.552 2.609-1.378 5.896.44 8.326 1.819 2.432 4.923 3.526 7.864 2.775zm94.944-155.354c12.395-20.83 34.258-33.266 58.483-33.266 6.862 0 13.534 1 19.855 2.903l-114.44 192.44-7.089-27.696c-1.026-4.014-5.113-6.431-9.123-5.407l-28.767 7.354z" fill="#000000" style="fill: rgb(255, 255, 255);"></path><path d="m500.221 358.85-75.108-126.287c-1.55-2.604-4.511-4.018-7.516-3.59-3 .433-5.445 2.629-6.196 5.565l-9.456 36.969-40.053-10.253c-2.945-.754-6.046.342-7.865 2.772-1.818 2.431-1.993 5.718-.441 8.327l76.315 128.319c.278.467.35.644.018 1.23-.327.575-.473.625-1.073.625h-74.17c-4.143 0-7.5 3.357-7.5 7.5s3.357 7.5 7.5 7.5h140.302c-1.513 6.035-3.852 11.902-6.983 17.411-12.255 21.545-34.367 34.407-59.148 34.407h-162.593l-24.915-24.915 26.905-26.903h52.43c4.143 0 7.5-3.357 7.5-7.5s-3.357-7.5-7.5-7.5h-55.536c-1.989 0-3.896.79-5.303 2.196l-34.405 34.403c-1.407 1.407-2.197 3.314-2.197 5.304s.79 3.896 2.196 5.304l32.415 32.415c1.407 1.406 3.314 2.196 5.304 2.196h165.697c30.245 0 57.23-15.697 72.188-41.993 7.179-12.63 10.974-26.833 10.974-41.073 0-14.792-4.075-29.464-11.786-42.429zm-55.146 43.679c.26-3.244-.495-6.518-2.281-9.521l-67.038-112.721 29.735 7.612c1.928.494 3.973.2 5.684-.813s2.95-2.666 3.442-4.594l6.838-26.732 65.873 110.759c6.332 10.646 9.679 22.667 9.679 34.763 0 .416-.013.832-.021 1.248h-51.911z" fill="#000000" style="fill: rgb(255, 255, 255);"></path><path d="m201.567 444.432 29.101-29.1c2.145-2.146 2.786-5.371 1.625-8.174-1.16-2.803-3.896-4.63-6.929-4.63h-142.175c-.591 0-.747-.052-1.05-.583-.355-.629-.289-.795-.006-1.271l10.452-17.573c2.117-3.561.947-8.162-2.612-10.28-3.561-2.117-8.163-.948-10.28 2.612l-10.453 17.575c-1.783 2.999-2.538 6.272-2.276 9.521h-51.922c-.232-12.382 2.99-24.791 9.664-36.012l60.525-101.761 36.163-9.257 8.911 34.83-33.229 55.874c-2.117 3.561-.947 8.163 2.612 10.28 3.561 2.116 8.163.947 10.28-2.612l34.821-58.551c1.019-1.714 1.313-3.762.819-5.693l-11.543-45.113c-.493-1.927-1.731-3.579-3.442-4.593-1.712-1.016-3.755-1.309-5.684-.813l-46.432 11.886c-1.922.492-3.571 1.726-4.586 3.432l-62.107 104.423c-15.46 25.994-15.763 57.212-.811 83.51 14.958 26.292 41.943 41.988 72.186 41.988h140.187c3.033 0 5.769-1.827 6.929-4.63 1.161-2.803.52-6.028-1.625-8.174zm-118.378 24.915c-24.78 0-46.892-12.862-59.147-34.404-3.174-5.582-5.501-11.435-6.999-17.414h190.214l-21.601 21.6c-2.929 2.93-2.929 7.678 0 10.607l19.612 19.611z" fill="#000000" style="fill: rgb(255, 255, 255);"></path></g></svg>